<svg width="76" height="76" viewBox="0 0 76 76" fill="none" xmlns="http://www.w3.org/2000/svg">
<rect x="69" y="2" width="5" height="5" fill="#717186"/>
<rect x="54" width="17" height="5" fill="#717186"/>
<rect x="71" y="5" width="5" height="17" fill="#717186"/>
<rect x="74" y="69" width="5" height="5" transform="rotate(90 74 69)" fill="#717186"/>
<rect x="76" y="54" width="17" height="5" transform="rotate(90 76 54)" fill="#717186"/>
<rect x="71" y="71" width="5" height="17" transform="rotate(90 71 71)" fill="#717186"/>
<rect x="7" y="74" width="5" height="5" transform="rotate(-180 7 74)" fill="#717186"/>
<rect x="22" y="76" width="17" height="5" transform="rotate(-180 22 76)" fill="#717186"/>
<rect x="5" y="71" width="5" height="17" transform="rotate(-180 5 71)" fill="#717186"/>
<rect x="2" y="7" width="5" height="5" transform="rotate(-90 2 7)" fill="#717186"/>
<rect y="22" width="17" height="5" transform="rotate(-90 0 22)" fill="#717186"/>
<rect x="5" y="5" width="5" height="17" transform="rotate(-90 5 5)" fill="#717186"/>
<rect x="22" width="32" height="5" fill="#717186"/>
<rect x="22" y="71" width="32" height="5" fill="#717186"/>
<rect x="5" y="22" width="32" height="5" transform="rotate(90 5 22)" fill="#717186"/>
<rect x="76" y="22" width="32" height="5" transform="rotate(90 76 22)" fill="#717186"/>
<rect x="71" y="7" width="4" height="6" transform="rotate(90 71 7)" fill="#79A669"/>
<rect x="71" y="11" width="11" height="6" transform="rotate(90 71 11)" fill="#79A669"/>
<rect x="69" y="71" width="4" height="6" transform="rotate(-180 69 71)" fill="#79A669"/>
<rect x="71" y="69" width="2" height="4" transform="rotate(-180 71 69)" fill="#79A669"/>
<rect x="71" y="65" width="6" height="43" transform="rotate(-180 71 65)" fill="#79A669"/>
<rect x="65" y="71" width="11" height="6" transform="rotate(-180 65 71)" fill="#79A669"/>
<rect x="7" y="71" width="4" height="2" transform="rotate(-90 7 71)" fill="#79A669"/>
<rect x="9" y="71" width="6.00001" height="45" transform="rotate(-90 9 71)" fill="#79A669"/>
<rect x="7" y="5" width="4" height="6" fill="#CFFFC7"/>
<rect x="5" y="7" width="2" height="4" fill="#CFFFC7"/>
<rect x="5" y="11" width="6" height="43" fill="#CFFFC7"/>
<rect x="11" y="5" width="43" height="6" fill="#CFFFC7"/>
<rect x="69" y="5" width="2" height="4" transform="rotate(90 69 5)" fill="#CFFFC7"/>
<rect x="65" y="5" width="6" height="11" transform="rotate(90 65 5)" fill="#CFFFC7"/>
<rect x="5" y="67" width="2" height="4" transform="rotate(-90 5 67)" fill="#CFFFC7"/>
<rect x="5" y="65" width="11" height="6" transform="rotate(-90 5 65)" fill="#CFFFC7"/>
<rect x="65" y="7" width="2" height="2" fill="#CFFFC7"/>
<rect x="5" y="67" width="2" height="2" fill="#CFFFC7"/>
</svg>
